<?xml version="1.0" encoding="UTF-8"?>
<svg id="Layer_3" data-name="Layer 3" xmlns="http://www.w3.org/2000/svg" viewBox="0 0 87.28 43.42">
  <defs>
    <style>
      .cls-1 {
        fill: #e9e9e9;
      }
    </style>
  </defs>
  <path class="cls-1" d="m41.15,31.35c.48-6.53-1.62-13.16-5.77-18.23S25.07,5.06,18.5,4.86c-6.17-.19-13.03,2.12-16.86,7.18-1.79,2.36-2.55,6.04,0,8.22s6.39.45,7.88-2.21c3.51-6.26-.65-14.38-6.97-16.75-.68-.25-.97.83-.3,1.08,5.1,1.91,8.49,7.82,7.06,13.18-.42,1.59-1.27,3.17-2.74,4.01-1.38.78-3.25.84-4.41-.37-2.44-2.54-.26-6.09,1.78-8.02,4.07-3.87,9.86-5.52,15.39-5.16s11.04,3.02,14.82,7.36c4.26,4.9,6.36,11.5,5.89,17.96-.05.72,1.07.72,1.12,0h0Z"/>
  <path class="cls-1" d="m6.1.02L1.92.98c-.3.07-.47.41-.39.69.08.3.39.46.69.39l4.18-.96c.3-.07.47-.41.39-.69-.08-.3-.39-.46-.69-.39h0Z"/>
  <path class="cls-1" d="m1.52,1.95l1.21,3.17c.1.27.38.49.69.39.27-.09.51-.4.39-.69l-1.21-3.17c-.1-.27-.38-.49-.69-.39-.27.09-.51.4-.39.69h0Z"/>
  <g>
    <path class="cls-1" d="m23.81,32.87c-.3.01-.52,0-.66-.05s-.19-.15-.15-.32c.03-.13.1-.22.21-.29.11-.06.26-.11.46-.14.12-.02.27-.05.46-.08.19-.03.37-.06.54-.1.35-.04.64-.08.87-.11.23-.03.47-.06.71-.08.25-.02.55-.04.93-.06.31-.02.68-.05,1.12-.08.03,0,.14.01.34.03.19.02.4.05.62.08.22.03.39.07.5.11.25.05.42.13.54.22.11.1.19.23.23.42.03.13.03.21,0,.23-.03.03-.09.06-.18.1-.25.07-.43.11-.54.11s-.25-.03-.4-.08c-.05-.05-.11-.1-.18-.14-.07-.04-.19-.08-.35-.1-.17-.03-.42-.05-.78-.07-.3.03-.56.05-.78.05s-.34.03-.34.08l-.94.05-.78.08c-.11.01-.26.02-.45.04s-.38.03-.56.05c-.18.02-.32.04-.42.06Zm-.13,9.54c-.09,0-.18-.07-.29-.21s-.15-.27-.14-.4c.01-.17.06-.42.14-.74s.18-.65.29-.98c.11-.33.2-.59.29-.78.04-.17.08-.32.12-.46.04-.13.06-.22.07-.26.03-.04.08-.15.15-.34.07-.18.13-.36.17-.53.02-.09.07-.25.14-.49s.15-.52.26-.84c.1-.32.2-.63.3-.94.1-.31.19-.58.26-.82.07-.24.12-.39.14-.46.08-.13.15-.25.19-.37.04-.12.07-.2.08-.24.06-.04.1-.1.11-.17.01-.07.02-.12.02-.17,0-.05.02-.1.06-.13.04-.03.06-.07.06-.11.04-.03.07-.08.08-.15.01-.07.04-.13.1-.18l.08-.27.94-.02c-.02.13-.05.29-.1.47-.04.19-.14.44-.3.74-.05.21-.11.41-.18.58-.07.17-.1.28-.09.34-.02.02-.07.13-.14.32-.07.19-.15.43-.24.7-.09.28-.18.55-.27.83s-.17.52-.24.73c-.07.21-.11.34-.14.39-.09.17-.18.42-.29.75-.11.33-.27.78-.48,1.34-.09.17-.19.43-.31.77-.12.34-.22.65-.3.93-.12.42-.2.71-.25.87-.05.17-.09.26-.12.27-.03.02-.09.02-.18,0Z"/>
    <path class="cls-1" d="m29.67,40.84c-.07.01-.15,0-.23,0-.08-.02-.16-.05-.23-.1-.09-.08-.14-.15-.18-.2-.03-.05-.04-.12-.02-.23.02-.11.05-.27.1-.5.05-.17.12-.41.19-.71.07-.3.15-.6.24-.9.03-.17.08-.35.14-.53s.12-.35.18-.5.11-.27.14-.36c.08-.3.17-.56.25-.78.08-.22.18-.48.3-.78.12-.29.26-.69.43-1.18.23-.64.41-1.13.54-1.46.12-.34.21-.58.27-.74.06-.15.1-.27.12-.36,0-.09.02-.15.07-.19.05-.04.11-.06.18-.06.15,0,.27.07.36.22.09.14.15.31.17.51.02.2-.01.38-.1.55-.17.38-.35.84-.54,1.37-.19.53-.38,1.04-.56,1.55-.18.51-.35.94-.51,1.29,0,.04-.02.12-.05.22-.03.11-.07.2-.11.29l-.18.35s-.02.12-.05.24c-.03.12-.07.26-.13.43-.04.13-.09.29-.15.5-.06.2-.1.37-.12.51.05-.1.17-.24.34-.43.17-.19.33-.36.48-.5.17-.15.36-.31.58-.5.21-.18.38-.31.51-.4.13-.08.29-.2.5-.34,0-.04.02-.07.06-.07.04,0,.08,0,.12,0s.07,0,.07-.02,0-.04,0-.08c0-.05.06-.1.18-.14.12-.04.27-.08.43-.1.17-.03.3-.04.41-.04.13,0,.23.03.3.08s.17.17.29.35c.13.17.21.38.25.62.04.24.01.49-.07.74,0,.08-.01.21-.04.36-.03.15-.04.32-.04.49l-.1.51h.26c.09,0,.2.03.35.08.04.04.09.08.13.12.04.04.09.06.13.06.13,0,.18.05.14.15-.03.1-.11.2-.24.28-.26.17-.49.26-.7.26s-.4-.08-.57-.26c-.17-.18-.28-.38-.32-.61-.04-.22-.02-.51.06-.85.04-.47.07-.81.07-1.03,0-.22-.05-.33-.17-.33-.11,0-.29.07-.56.22-.27.14-.57.34-.9.58s-.66.52-.98.82c-.32.3-.59.61-.8.93-.13.16-.25.3-.37.42-.12.12-.23.19-.35.2Z"/>
    <path class="cls-1" d="m38.93,41.14c-.22.19-.48.3-.78.34-.29.03-.58-.01-.86-.14-.28-.12-.51-.31-.69-.57-.18-.23-.3-.5-.35-.81-.05-.3-.06-.7-.02-1.19.03-.42.17-.83.4-1.26.23-.42.52-.8.86-1.13.34-.33.67-.56,1-.69.16-.11.3-.16.41-.15.11,0,.29.02.52.04.25.03.43.08.55.14s.22.15.3.26c.16.16.27.32.32.47.05.16.08.31.08.46-.04.24-.2.52-.47.86s-.63.61-1.06.82c-.23.07-.49.11-.77.1s-.51-.08-.69-.21c-.2-.08-.34-.07-.4.04s-.12.38-.18.81c-.04.41-.01.7.1.89.11.19.25.3.43.33.21.04.38.07.5.09.12.02.27-.03.46-.14.17-.11.28-.17.32-.18s.08-.04.1-.06c.03-.03.09-.09.2-.2.07-.08.13-.13.18-.17s.09-.06.14-.06.1.02.14.07.09.08.13.1c.11,0,.13.06.07.19-.06.13-.17.28-.34.46-.17.18-.37.34-.61.49Zm-.02-3.39c.12-.05.24-.13.37-.23s.24-.21.33-.34c.09-.12.14-.23.14-.31,0-.15-.07-.27-.21-.38-.14-.1-.35-.11-.62-.04-.12.03-.25.11-.4.23s-.29.26-.42.41c-.13.15-.24.28-.32.4-.08.12-.11.19-.09.21.03.05.12.09.27.12.15.03.32.04.5.02s.34-.04.46-.1Z"/>
    <path class="cls-1" d="m45.19,42.1c-.05,0-.12-.02-.19-.07s-.14-.11-.2-.18c-.06-.08-.09-.16-.09-.24-.01-.14-.04-.25-.08-.32,0-.08,0-.18,0-.3,0-.11.03-.23.07-.34,0-.12.02-.25.05-.39.03-.14.07-.25.11-.33,0-.12.03-.27.09-.46s.11-.36.15-.52c.12-.35.21-.61.26-.77s.1-.28.12-.36c.02-.08.03-.16.03-.25.03-.08.08-.24.14-.46s.13-.46.2-.7c.07-.24.11-.41.14-.52.04-.04.07-.08.07-.12s0-.08,0-.12c.15-.49.28-.9.4-1.22.19-.57.32-.98.39-1.23s.1-.44.1-.54c0-.11-.03-.21-.09-.32-.07-.14-.07-.25,0-.32.04-.04.1-.12.16-.24,0-.02.07-.06.21-.11.14-.05.31-.11.51-.18s.41-.14.62-.2.38-.12.52-.16h.66c.28.04.56.12.86.24.29.12.54.28.74.5.13.12.24.26.34.42.1.16.23.42.39.78,0,.04.01.13.04.26.03.13.04.26.04.39,0,.32-.08.66-.24,1.01-.16.35-.39.71-.69,1.06-.3.36-.66.71-1.09,1.06-.45.36-.91.61-1.39.74-.48.13-.91.15-1.28.08-.07-.03-.14-.1-.2-.19s-.1-.19-.12-.29-.02-.16.02-.19c.09-.02.21-.03.38-.02.17,0,.44-.06.82-.2.12-.04.24-.09.37-.15.13-.06.23-.11.3-.15.21-.14.46-.33.74-.56.28-.23.53-.54.77-.91.1-.15.19-.33.29-.54s.18-.42.25-.63c.07-.21.1-.39.1-.53.09-.28.03-.51-.15-.7-.19-.19-.48-.3-.89-.34-.13-.03-.33-.02-.59.02-.27.05-.52.11-.77.18-.25.07-.41.14-.5.19-.04,0-.07.03-.08.1s-.04.14-.08.22c0,.08-.03.23-.1.47-.06.24-.14.46-.22.66-.07.24-.17.49-.27.78-.11.28-.18.5-.22.66-.04.17-.12.42-.24.74,0,.04-.03.13-.09.27s-.11.29-.15.45c-.04.2-.1.43-.17.69s-.15.49-.23.69c-.12.39-.22.79-.3,1.18s-.09.64-.02.76c.12,0,.16.09.13.28-.03.19-.13.44-.29.76-.11.27-.19.45-.24.55s-.1.16-.14.17-.11.02-.19.02Z"/>
    <path class="cls-1" d="m51.8,40.95c-.11-.06-.19-.13-.24-.19-.05-.06-.08-.16-.08-.27,0-.16.02-.33.06-.5.04-.18.08-.35.13-.52.02-.19.05-.39.09-.58.04-.2.11-.38.22-.55.12-.41.24-.81.37-1.21.13-.4.24-.81.34-1.24.14-.39.26-.74.38-1.05.11-.3.25-.69.42-1.16.1-.27.18-.55.25-.86.07-.3.18-.58.33-.82.06-.1.11-.18.15-.25.04-.07.08-.14.12-.2.01-.04.05-.07.1-.08.06-.01.13,0,.2.02.07.02.13.06.18.11.03-.01.07.02.12.09.05.07.09.15.14.23.04.09.06.16.05.22,0,.04,0,.1-.02.18-.02.07-.05.14-.09.21-.04.04-.08.1-.12.18-.04.08-.09.19-.17.33-.04.14-.08.28-.11.42-.03.14-.07.28-.13.39-.04.13-.09.25-.15.37-.06.12-.1.21-.12.29-.07.25-.16.49-.26.72-.1.23-.19.49-.26.75-.07.26-.15.52-.22.79-.07.27-.18.53-.32.78-.07.12-.13.27-.16.45-.03.18-.06.36-.1.54-.06.19-.12.37-.17.54-.05.17-.07.27-.07.31-.06.23-.11.47-.14.7-.03.23-.08.43-.17.6-.01.11-.03.19-.06.26s-.09.1-.16.1c-.07,0-.18-.02-.3-.09Z"/>
    <path class="cls-1" d="m55.21,41.23c-.09.02-.2.03-.34.02-.14,0-.26-.02-.36-.05-.1-.03-.15-.06-.15-.09,0-.05-.03-.08-.08-.08-.1-.09-.19-.15-.29-.19-.1-.15-.14-.31-.14-.49s.05-.46.14-.84c.03-.27.14-.58.31-.94.18-.36.39-.72.65-1.1.26-.37.53-.71.81-1.01.28-.3.54-.52.78-.66.15-.15.33-.23.54-.24s.42.04.61.14c.11.05.21.14.32.26.11.12.21.25.3.38.1.14.18.28.24.42.03.12.05.22.06.31s0,.2,0,.33-.02.32-.06.58c-.05.19-.1.43-.14.7-.04.28-.06.52-.06.72-.02.2,0,.35.07.43.07.09.17.09.31.02.13-.06.25-.09.37-.09.12,0,.21.04.28.1.07.06.1.16.1.29s-.06.26-.18.39c-.12.13-.27.25-.45.34-.18.09-.34.14-.5.14-.12,0-.23-.07-.34-.22-.11-.14-.2-.32-.28-.53s-.15-.41-.22-.6l-.1-.37-.69.66c-.14.15-.27.29-.41.41-.13.12-.22.21-.25.26-.05.1-.15.19-.3.29-.14.1-.34.19-.58.29Zm.05-.94c.18-.11.39-.26.62-.47.23-.21.46-.44.69-.69.22-.25.41-.48.56-.7.18-.25.32-.47.42-.69.1-.21.17-.42.21-.61-.04-.12-.11-.24-.21-.38-.1-.13-.18-.21-.26-.22-.23,0-.48.15-.74.44-.26.29-.51.61-.76.95-.04.05-.1.14-.18.26s-.15.23-.22.33-.11.17-.14.2c-.03.04-.09.16-.18.36-.09.2-.18.4-.26.59-.09.2-.13.33-.13.39s0,.13.02.21c.02.08.07.12.15.14s.22-.02.4-.13Z"/>
    <path class="cls-1" d="m61.3,42.5c-.35-.05-.59-.18-.71-.39-.12-.21-.15-.53-.09-.95.06-.2.1-.39.12-.55.02-.17.06-.27.14-.31.03-.06.03-.11,0-.14,0-.14.05-.33.14-.58.02-.06.07-.19.14-.37-.05-.08-.05-.15,0-.21.05-.05.11-.1.17-.15.06-.05.06-.1,0-.17-.02-.04,0-.14.08-.3.07-.16.16-.32.26-.49.1-.17.16-.3.19-.4,0-.02.03-.1.08-.22s.12-.28.19-.45c.07-.17.15-.33.22-.46.07-.14.11-.23.14-.27.11-.05.06-.09-.13-.11-.19-.02-.4-.03-.61-.02-.33,0-.59-.03-.79-.05s-.36-.07-.49-.14c-.13-.15-.17-.26-.14-.33.04-.07.16-.11.38-.12.14-.01.25-.02.33-.02s.19,0,.32-.02.34-.04.63-.07l.82-.06.05-.27c.08-.14.16-.26.22-.38.06-.11.11-.23.15-.34.04-.12.08-.24.1-.37.19-.35.3-.62.32-.82.13-.21.24-.41.34-.58.1-.18.16-.29.18-.33.12-.1.2-.14.25-.14s.15.05.31.16c.1.05.18.12.26.19s.12.15.14.23c.02.08-.01.16-.1.23-.02.04-.05.12-.1.23-.04.11-.07.21-.1.28-.06.07-.14.19-.23.36-.09.17-.15.33-.18.5-.09.18-.17.34-.24.49-.08.14-.13.22-.18.22.02.11.08.16.19.15.11,0,.28-.01.53-.02.2-.02.34-.05.42-.07s.17-.01.28.04c.05.08.1.16.13.26s.04.18.02.26c-.02.08-.06.14-.14.17-.05,0-.16.03-.33.09-.17.06-.37.09-.62.1l-.85.08-.27.54c-.08.14-.14.26-.19.38s-.09.18-.11.2c0,.06-.04.16-.1.29s-.14.27-.22.42c-.06.18-.18.42-.34.72-.04,0-.06.03-.06.1.05.13.04.22-.05.29-.05.03-.12.11-.19.22.04.04.05.1.02.16-.03.06-.06.13-.1.21,0,.08-.02.21-.07.37-.05.16-.1.31-.15.45.01.19.02.31.03.37.01.05.04.08.08.06.05.01.1.01.14,0s.09-.02.13-.02c.15-.06.07.31-.24,1.12-.17.27-.29.46-.35.58-.06.12-.12.18-.18.18Z"/>
    <path class="cls-1" d="m65.12,43.4c-.06.04-.14.03-.22-.03-.08-.06-.19-.18-.34-.35-.08-.09-.12-.18-.14-.27-.02-.1-.02-.28.02-.54.04-.12.07-.23.07-.34,0-.11,0-.18,0-.22,0-.06.02-.21.06-.45s.08-.48.12-.74c.04-.26.08-.46.11-.6,0-.01,0-.04.02-.08s.02-.08.03-.11c.02-.1.05-.22.09-.38.04-.16.07-.36.1-.59.09-.27.16-.53.22-.79.06-.26.09-.44.09-.54,0-.19.07-.33.22-.42.01-.05.04-.14.1-.25.05-.11.1-.21.14-.28.21-.61.39-1.09.53-1.45.14-.36.28-.67.43-.94.06-.18.14-.37.22-.56.08-.19.16-.34.25-.45.05-.14.18-.32.37-.54.19-.22.39-.43.61-.64.21-.21.38-.37.51-.47.23-.12.42-.2.56-.24.14-.04.32-.06.54-.06.2,0,.34.02.41.07.07.05.17.14.31.26.15.16.24.27.26.32.02.05.03.15.03.3-.02.14-.08.32-.17.54-.09.22-.19.42-.29.59-.1.18-.18.27-.25.28-.13.04-.22.03-.28-.04s-.09-.18-.09-.34c0-.07-.04-.18-.11-.32,0-.03,0-.09.02-.17.02-.08.05-.16.09-.23.05-.11.07-.19.04-.24-.03-.05-.1-.06-.22-.03-.03.02-.12.09-.26.19-.14.11-.29.23-.44.36-.16.13-.29.26-.41.38-.12.12-.18.19-.18.22-.09.18-.19.34-.3.48-.07.11-.14.21-.2.31-.06.1-.09.16-.09.18,0,.04,0,.09,0,.14,0,.05-.03.07-.09.07-.06.19-.14.36-.22.51-.04.11-.1.22-.16.33-.06.11-.12.19-.16.23h.02c-.1.27-.17.47-.22.62-.05.14-.08.23-.08.25,0,.04.08.06.23.06s.34-.02.55-.06c.21-.04.41-.08.58-.12.15-.04.25-.06.3-.06s.16.02.32.06c.08.05.16.13.22.23s.1.2.13.29.02.16,0,.2c-.01.04-.13.1-.35.18-.22.08-.45.13-.67.18-.19.04-.43.09-.7.14s-.52.1-.73.14c-.21.04-.31.08-.31.11-.04,0-.08.02-.11.07-.03.05-.05.09-.05.12,0,.15-.02.26-.06.34-.02.06-.06.19-.11.38-.05.19-.11.41-.17.64s-.11.45-.14.64c-.04.19-.06.32-.06.38-.06.07-.1.17-.11.28-.01.11-.02.21-.02.3-.04.08-.07.16-.08.23-.01.07-.02.13-.02.17v.06s0,.06-.02.1c-.01.11-.02.25-.04.42-.02.18-.02.35-.02.52l-.05.46c-.01.14-.03.26-.05.36s-.06.18-.11.23Z"/>
    <path class="cls-1" d="m70.63,41.6c-.14.01-.25,0-.34-.04s-.19-.09-.32-.17c-.23-.18-.41-.37-.52-.55s-.16-.37-.15-.55c.02-.1.02-.22-.02-.37-.06-.05-.09-.09-.06-.1.02-.02.04-.04.05-.09.08-.02.1-.08.03-.18-.03-.09-.01-.28.06-.58.07-.3.16-.59.28-.86.05-.12.13-.27.23-.46s.22-.39.34-.58.25-.35.35-.47c.23-.27.45-.47.63-.6.19-.13.4-.24.63-.33.21-.08.37-.13.46-.14s.23.05.4.19c.26.07.45.18.58.31.13.13.24.34.31.62.09.31.11.67.09,1.1-.03.42-.21.96-.55,1.62-.2.42-.4.73-.6.94-.2.21-.43.44-.71.67-.2.17-.39.3-.56.4-.17.1-.38.17-.62.22Zm1.28-1.9c.21-.32.38-.62.5-.89.12-.27.22-.62.3-1.03.02-.12.03-.26.02-.44-.01-.18-.03-.34-.07-.49-.04-.15-.09-.23-.15-.24-.14-.05-.29-.06-.46,0s-.36.18-.56.39c-.18.21-.34.45-.49.72-.14.27-.28.56-.39.88-.12.32-.23.66-.34,1.02-.11.41-.1.71.02.93.12.21.33.26.62.15.29-.11.62-.45,1.01-1Z"/>
    <path class="cls-1" d="m75.24,41.2s-.09,0-.16-.02c-.08-.02-.15-.05-.22-.08-.08-.03-.12-.06-.14-.08-.04-.04-.08-.11-.12-.19-.04-.09-.04-.21,0-.38.03-.17.14-.38.32-.65.05-.11.12-.27.19-.48.08-.21.15-.44.23-.68s.15-.46.22-.65c.07-.19.12-.33.15-.4.02-.18.01-.31-.02-.39-.04-.08-.13-.13-.28-.14-.11,0-.19,0-.25-.03s-.09-.13-.09-.32c.02-.15.06-.25.12-.31s.14-.12.25-.2c.11-.05.22-.09.33-.11.11-.02.22-.03.33-.02.11.01.19.05.26.11.08.04.12.14.14.28.02.14.03.29.04.44,0,.15.01.26.02.34.11-.08.25-.21.44-.36s.35-.3.49-.44c.17-.12.37-.24.61-.36.23-.12.41-.18.51-.18.12,0,.24.03.35.09.12.06.2.13.24.22.11.18.16.34.15.48,0,.14-.07.28-.18.43-.11.14-.24.24-.39.29-.15.05-.25.08-.3.08-.06,0-.14-.05-.24-.14s-.15-.18-.16-.24c0-.03-.07,0-.2.09-.13.09-.28.2-.44.34-.16.13-.29.25-.4.36-.18.22-.37.53-.58.91-.2.38-.44.85-.72,1.39-.13.27-.22.49-.27.68-.05.19-.13.3-.22.33Z"/>
    <path class="cls-1" d="m80.37,40.91c-.12-.07-.22-.17-.32-.3-.1-.12-.14-.28-.14-.47,0-.11.02-.29.06-.54.04-.26.1-.54.18-.86.07-.32.15-.62.22-.9.11-.19.2-.38.27-.58.07-.19.11-.31.11-.35.02-.13.05-.28.09-.45.04-.17.08-.33.12-.46.04-.14.07-.22.1-.24.05-.05.12-.09.19-.1.07-.02.15,0,.23.03s.14.11.18.22c.12.13.18.28.18.46s-.06.43-.18.78c-.1.21-.19.46-.29.75-.1.29-.18.55-.25.79s-.11.4-.12.49l-.32.1c.18-.17.35-.35.51-.54.16-.19.28-.33.35-.44.18-.25.34-.45.47-.62.13-.17.31-.37.52-.6.21-.25.42-.4.63-.46s.37-.09.49-.09c.23.04.42.16.57.36.14.2.24.49.28.87,0,.15-.03.43-.08.83.35-.45.68-.81.98-1.07.2-.15.4-.24.59-.26.19-.03.36.04.51.2.28.15.46.38.54.68.08.3.11.69.06,1.16-.03.28-.04.48-.02.62.02.13.05.26.1.39.09.04.1.13.05.26-.05.13-.12.2-.19.2-.11,0-.23-.02-.36-.06-.13-.04-.25-.11-.35-.22-.1-.1-.15-.24-.15-.42v-.99c0-.23,0-.43-.02-.58-.02-.15-.05-.24-.09-.27-.12-.06-.29,0-.51.21-.22.2-.46.47-.72.82-.26.34-.5.69-.72,1.06-.2.33-.33.52-.38.57-.05.05-.13.04-.25-.04-.24-.08-.38-.18-.44-.31-.06-.13-.07-.29-.02-.46.05-.18.12-.43.2-.74.08-.31.16-.61.23-.9.07-.29.12-.5.14-.63-.04-.09-.11-.12-.22-.09-.1.03-.21.08-.31.15-.13.09-.28.25-.46.48-.18.23-.37.51-.56.82-.13.2-.26.4-.4.6-.14.2-.27.37-.38.52s-.22.26-.3.34c-.15.24-.25.36-.3.38-.05.02-.16,0-.3-.08Z"/>
  </g>
</svg>