<?xml version="1.0" encoding="UTF-8"?>
<svg id="Layer_8" data-name="Layer 8" xmlns="http://www.w3.org/2000/svg" viewBox="0 0 241.11 107.29">
  <defs>
    <style>
      .cls-1 {
        fill: #e9e9e9;
      }
    </style>
  </defs>
  <path class="cls-1" d="m23.18,70.45c.35.16.68.34,1.01.54.15.1.3.2.45.3.04.03.08.06.12.08.01,0,.12.09.08.06-.03-.03.08.06.08.06.04.03.07.06.11.09.29.24.56.49.81.77.13.14.26.28.38.43.02.03.05.06.07.09.11.14-.03-.04.03.04s.12.17.19.25c.17.24.5.38.77.2.24-.15.38-.51.2-.77-.95-1.34-2.22-2.44-3.72-3.13-.27-.12-.62-.08-.77.2-.13.25-.08.64.2.77h0Z"/>
  <path class="cls-1" d="m23.56,70.15c1.37-.88,2.22-2.46,2.17-4.09-.01-.29-.25-.58-.56-.56s-.57.25-.56.56c0,.16,0,.33-.01.49,0,0-.02.15,0,.09s-.01.09-.01.09c-.01.08-.03.16-.05.24-.04.16-.08.32-.14.47-.02.04-.03.09-.05.13-.01.03-.03.07,0,.02-.04.08-.08.17-.12.25-.08.15-.16.29-.25.42-.02.03-.04.06-.06.09,0,0-.09.12-.05.07s-.06.07-.06.07c-.02.03-.05.06-.07.08-.12.13-.24.25-.37.36-.03.02-.06.05-.08.07-.04.04.04-.03-.04.03-.07.05-.15.1-.23.15-.26.16-.36.5-.2.77.15.25.51.37.77.2h0Z"/>
  <path class="cls-1" d="m24.26,70.24c8.47-.76,16.98-2.93,24.2-7.57,6.53-4.2,11.82-10.51,14.12-17.99,1.03-3.35,1.83-7.59.75-11.02-1.2-3.81-5.22-4.61-8.65-3.39s-6.42,4.17-6.95,7.95,1.33,6.87,4.48,8.65c3.71,2.1,8.33,2.38,12.5,2.57,5.44.25,10.89-.16,16.25-1.15.71-.13.41-1.22-.3-1.08-4.31.8-8.69,1.2-13.07,1.18-3.74-.02-7.65-.16-11.29-1.12-3.09-.81-6.3-2.49-7.24-5.78-1.09-3.78,1.06-7.57,4.35-9.41s7.87-1.96,8.96,2.29c.83,3.27.06,7.14-.95,10.29-2.16,6.75-6.89,12.55-12.72,16.51-7.2,4.89-15.84,7.18-24.43,7.94-.72.06-.72,1.19,0,1.12h0Z"/>
  <g>
    <path class="cls-1" d="m83.61,42.43c-.34.01-.58,0-.75-.05-.16-.05-.22-.17-.17-.36.04-.14.11-.25.23-.32.12-.07.29-.13.52-.16.13-.02.3-.05.51-.09.21-.04.41-.07.6-.11.4-.05.72-.09.98-.13.26-.04.52-.07.8-.09.28-.02.62-.05,1.04-.07.35-.02.77-.05,1.26-.09.04,0,.16.01.38.04.22.02.45.05.7.09.25.04.44.08.56.13.28.06.48.14.6.25.13.11.21.26.26.47.04.14.04.23,0,.26-.04.03-.1.07-.2.12-.28.08-.48.13-.61.13s-.28-.03-.45-.09c-.06-.06-.13-.11-.21-.16s-.21-.09-.4-.12c-.19-.03-.48-.06-.87-.08-.34.04-.63.05-.88.05s-.38.03-.38.09l-1.06.05-.88.09c-.12.01-.29.03-.5.04-.22.02-.43.04-.63.05s-.36.04-.47.06Zm-.14,10.73c-.1,0-.2-.08-.32-.23-.12-.16-.17-.31-.16-.45.01-.19.07-.47.16-.83.1-.36.2-.73.32-1.1.12-.37.23-.67.32-.88.05-.19.09-.36.14-.51.04-.15.07-.25.08-.3.04-.05.09-.17.17-.38.08-.2.14-.4.19-.59.02-.1.07-.28.15-.55.08-.27.17-.59.29-.95.11-.36.23-.71.34-1.06.11-.35.21-.65.3-.92.08-.26.14-.44.16-.52.1-.14.17-.28.22-.41.05-.13.08-.22.09-.27.07-.05.11-.11.13-.19.01-.08.02-.14.02-.19,0-.06.02-.11.06-.14s.06-.08.06-.13c.05-.04.08-.09.09-.17.01-.08.05-.15.11-.21l.09-.31,1.06-.02c-.02.14-.06.32-.11.53-.05.21-.16.49-.34.84-.06.24-.13.46-.21.65-.08.19-.11.32-.1.38-.02.02-.08.14-.15.36-.08.22-.17.48-.27.79s-.2.62-.31.94c-.1.31-.19.58-.27.82-.08.23-.13.38-.15.44-.1.19-.2.47-.32.85-.12.37-.3.88-.54,1.51-.1.19-.21.48-.35.86-.14.38-.25.73-.33,1.04-.13.47-.23.79-.28.98-.05.19-.1.29-.14.31-.04.02-.1.02-.2,0Z"/>
    <path class="cls-1" d="m90.19,51.4c-.08.01-.17,0-.26,0s-.18-.06-.26-.12c-.1-.1-.16-.17-.2-.23-.04-.05-.04-.14-.03-.26.02-.12.06-.31.12-.56.06-.19.13-.46.22-.8.08-.34.17-.68.27-1.02.04-.19.09-.39.15-.59.07-.2.13-.39.21-.57.07-.17.13-.31.16-.4.1-.34.19-.63.28-.88.09-.25.2-.54.33-.87.13-.33.29-.77.49-1.32.26-.72.46-1.27.6-1.65s.24-.65.31-.83c.07-.17.11-.31.13-.4,0-.1.03-.17.08-.22.05-.05.12-.07.21-.07.17,0,.3.08.41.24.1.16.16.35.19.58.02.22-.01.43-.11.62-.19.43-.4.94-.61,1.54-.22.59-.43,1.18-.63,1.75s-.4,1.05-.58,1.45c0,.05-.02.13-.05.25-.04.12-.08.23-.13.32-.05.1-.11.23-.2.4,0,.05-.02.14-.05.27-.04.13-.08.29-.14.49-.05.14-.11.33-.17.56s-.11.42-.13.58c.06-.11.19-.27.38-.49.19-.22.37-.4.54-.56.19-.17.41-.35.65-.56s.43-.35.58-.45c.14-.1.33-.22.56-.38,0-.05.02-.07.06-.08.04,0,.09,0,.13,0s.07,0,.08-.02c0-.01,0-.04,0-.09,0-.06.07-.11.21-.16.14-.05.3-.09.49-.12.19-.03.34-.04.46-.04.14,0,.26.03.34.09.08.06.19.19.32.4.14.19.24.42.28.69s.02.55-.08.84c0,.1-.02.23-.04.4-.03.17-.04.36-.04.55l-.11.58h.29c.1,0,.23.03.4.09.05.05.1.09.14.13s.1.06.14.06c.14,0,.2.06.16.17-.04.11-.13.22-.27.31-.29.19-.55.29-.78.29s-.45-.1-.64-.29c-.19-.2-.31-.43-.36-.68-.05-.25-.02-.57.07-.95.05-.53.07-.92.08-1.16,0-.25-.06-.37-.19-.37-.12,0-.33.08-.63.24-.3.16-.64.38-1.01.66-.37.28-.74.58-1.1.92-.36.34-.66.68-.9,1.04-.14.18-.28.34-.41.48-.13.14-.26.21-.4.22Z"/>
    <path class="cls-1" d="m100.62,51.74c-.25.22-.54.34-.87.38-.33.04-.65-.02-.96-.15-.31-.14-.57-.35-.77-.64-.2-.26-.34-.57-.4-.91-.06-.34-.07-.79-.02-1.34.04-.47.19-.94.45-1.41.26-.47.58-.9.96-1.27.38-.37.75-.63,1.12-.77.18-.12.33-.18.46-.17s.32.02.58.04c.28.04.48.09.62.16.14.07.25.17.33.29.18.18.3.36.36.53.06.17.09.35.09.51-.05.26-.23.58-.53.96s-.71.69-1.2.93c-.26.08-.55.12-.86.11-.31-.01-.57-.09-.77-.23-.23-.1-.38-.08-.45.04-.07.13-.14.43-.2.91-.05.46-.01.79.11,1s.28.33.49.37c.24.05.43.08.57.1.14.02.31-.03.51-.15.19-.12.31-.19.36-.21.05-.02.09-.04.12-.07l.23-.23c.08-.08.15-.15.2-.19.05-.04.1-.06.16-.06s.11.03.16.08c.05.05.1.09.14.12.12,0,.15.07.08.22s-.2.31-.39.51c-.19.2-.42.38-.68.55Zm-.02-3.82c.13-.06.27-.15.41-.26.14-.11.27-.24.37-.38.1-.14.15-.25.15-.35,0-.17-.08-.31-.23-.42s-.39-.13-.7-.04c-.13.04-.28.12-.45.26-.17.14-.33.29-.48.46-.15.17-.27.32-.36.45s-.12.21-.1.23c.04.06.14.1.31.13.17.03.36.04.57.03.21-.01.38-.05.51-.11Z"/>
    <path class="cls-1" d="m110.79,53.02c-.19.01-.46.01-.79,0-.34-.01-.69-.07-1.05-.17-.37-.1-.69-.28-.98-.54s-.48-.63-.58-1.11c-.14-.67-.17-1.4-.09-2.2s.23-1.57.43-2.34c.06-.22.17-.5.34-.84s.37-.71.6-1.11c.23-.4.48-.78.73-1.16.25-.38.49-.7.7-.98.16-.18.34-.38.56-.59.22-.22.44-.42.67-.62.23-.2.44-.37.63-.51s.34-.23.43-.27c.17-.1.32-.15.45-.15.13,0,.32.02.58.08.17.01.34.07.52.17s.34.21.48.33c.14.12.21.23.23.34.01.07.14.07.4-.02.08-.1.16-.16.24-.18.08-.02.15-.02.21,0s.1.08.11.16c-.07.11-.06.2.04.29.04-.01.04.04.02.17-.02.13-.07.27-.13.44s-.13.32-.22.45l-.05.18c.02.06.01.12-.04.18s-.09.11-.13.16c-.04.06-.08.17-.13.31-.05.15-.1.32-.15.5-.05.19-.09.35-.12.5-.03.15-.04.25-.04.31.02.08-.01.13-.11.13-.1,0-.25-.03-.45-.1-.26-.1-.43-.22-.5-.38-.07-.16-.03-.46.1-.92.17-.55.26-.96.29-1.22.02-.26-.05-.46-.22-.59-.06-.11-.19-.18-.4-.21-.2-.03-.37,0-.5.08-.18.07-.43.27-.74.58-.31.32-.64.68-.97,1.09-.34.41-.64.8-.9,1.17-.55.77-.98,1.57-1.29,2.39-.31.83-.48,1.63-.53,2.39-.05.77.03,1.46.23,2.09.02.05.1.15.22.31.12.16.22.26.29.31.38.08.92.09,1.62.02.52-.1.9-.24,1.14-.43.25-.19.48-.46.71-.79.13-.19.27-.32.4-.38.14-.06.26-.05.36.02.1.07.16.22.19.43,0,.06-.05.18-.15.37-.1.19-.22.36-.34.53s-.23.26-.3.29c-.05.01-.08.02-.08.04,0,.01,0,.05,0,.11,0,.05-.08.12-.23.22-.16.1-.35.19-.57.3-.22.1-.44.19-.65.25-.21.07-.38.1-.5.1Z"/>
    <path class="cls-1" d="m116.87,51.69c-.25.05-.41.06-.48.04s-.17-.09-.3-.21c-.19-.1-.35-.22-.48-.36s-.22-.3-.27-.46c-.05-.16-.08-.3-.06-.4.04-.42.14-.87.31-1.35.17-.48.37-.94.61-1.39.24-.44.5-.82.78-1.14.28-.32.55-.52.82-.62.24-.1.47-.13.68-.11.22.02.37.14.47.34.18.35.14.57-.13.67-.04,0-.08.02-.13.04-.05.03-.07.07-.07.12.05.02.18.03.4,0,.22-.02.43-.05.66-.11.22-.05.37-.11.44-.17.07-.04.13-.05.16-.05s.13.01.27.04c.2.06.31.13.31.22,0,.05.02.09.05.14.04.04.08.06.13.06.08.01.07.07-.03.16-.1.1-.27.23-.51.4-.23.14-.37.24-.42.28-.05.04-.06.13-.03.26.1.23.1.49.02.79-.08.3-.23.61-.45.92-.22.31-.48.6-.78.87-.31.27-.63.5-.97.68s-.67.3-1,.33Zm-.31-.79s.13-.03.25-.08c.12-.05.22-.1.29-.13.05-.05.11-.1.19-.17s.14-.1.19-.12c.05,0,.11-.02.18-.06.07-.04.17-.13.31-.27.13-.14.31-.34.52-.62.24-.26.43-.51.56-.73.13-.22.17-.43.11-.62-.01-.05-.04-.08-.1-.09-.05-.01-.12-.04-.21-.09-.12,0-.23-.03-.33-.1s-.22-.15-.35-.26l-.29-.36-.31.31c-.19.19-.39.48-.6.85s-.39.76-.53,1.15c-.14.39-.23.7-.25.93-.01.18.02.3.09.36.07.06.17.1.29.11Z"/>
    <path class="cls-1" d="m121.39,51.7s-.07-.11-.1-.18c-.03-.07-.04-.13-.04-.18,0-.02,0-.05,0-.09,0-.04-.03-.05-.08-.05-.04-.04,0-.18.08-.42.09-.25.21-.53.36-.86.15-.32.3-.64.47-.94s.3-.55.41-.73c.06-.04.1-.09.12-.15s.01-.1,0-.1c.13-.23.22-.36.25-.4.1-.17.17-.34.22-.51.05-.17.06-.32.04-.44-.05-.06-.13-.07-.25-.02-.05.01-.12.03-.21.06-.09.03-.17.07-.24.12-.28.19-.46.28-.56.26-.1-.02-.21-.17-.32-.46-.05-.13-.07-.23-.05-.29s.06-.13.14-.2c.1-.08.19-.14.27-.17.08-.03.15-.06.2-.1.13-.08.24-.14.33-.18.09-.04.16-.06.21-.07.31-.1.58-.11.79-.05s.38.22.49.47c.17.2.25.44.25.69s-.08.56-.25.89l-.18.27c-.06.12-.07.18-.03.18s.09-.04.15-.13c.04-.05.11-.12.22-.22.11-.1.18-.14.22-.14.06-.02.09-.08.09-.16.04-.04.1-.09.18-.16.05,0,.14-.06.28-.17.14-.11.3-.25.5-.41.13-.1.25-.14.36-.14.28-.08.5,0,.67.27.17.26.26.61.26,1.03l-.38.97.65-.79c.07-.1.15-.18.22-.25.08-.07.15-.13.21-.18.02-.08.08-.14.18-.16.05-.01.07-.04.07-.07.06-.05.13-.09.2-.13s.12-.09.14-.14c.2-.08.39-.1.56-.04.17.05.31.21.43.46.08.14.13.27.14.38.01.11.02.27.02.49-.02.18-.04.32-.06.42-.02.1-.03.21-.04.31s-.03.26-.05.45c-.05.1-.08.2-.08.31s0,.21,0,.31c0,.16,0,.26.02.31s.06.08.14.08c.17-.04.4-.12.69-.26.29-.14.51-.27.66-.4.18-.17.34-.25.48-.26.14,0,.22.06.26.21.02.05-.02.16-.12.32-.1.17-.22.33-.34.49-.13.16-.22.23-.28.23-.04,0-.08.03-.13.1-.05.07-.1.12-.16.15-.08.08-.17.16-.24.23-.08.07-.17.11-.26.11-.05,0-.11.02-.17.04-.07.03-.14.04-.22.04-.12.04-.3.02-.55-.05-.25-.07-.4-.24-.48-.5-.05-.13-.09-.34-.13-.64s-.03-.59.02-.89c.05-.22.08-.41.09-.59.01-.18.04-.31.07-.38v-.26c0-.14-.02-.21-.05-.21-.05,0-.16.09-.33.26-.17.17-.38.39-.61.66-.23.26-.46.54-.69.83-.23.29-.41.55-.56.77-.11.13-.2.29-.29.49-.08.19-.14.3-.18.32-.08.1-.18.11-.3.04-.11-.07-.22-.19-.32-.34-.04-.07-.06-.13-.07-.19-.01-.05,0-.13,0-.23.02-.1.06-.25.13-.46.07-.2.16-.49.28-.86.13-.41.3-.94.5-1.6,0-.05-.09,0-.27.14-.18.14-.39.31-.63.51-.11.13-.29.33-.54.59-.25.26-.53.56-.83.9s-.59.69-.86,1.06c-.35.49-.59.79-.73.9-.14.11-.27.08-.4-.09Z"/>
    <path class="cls-1" d="m132.3,51.49c-.13-.08-.25-.2-.36-.33-.11-.14-.16-.31-.16-.53,0-.12.02-.32.07-.61.05-.29.11-.61.2-.97s.17-.7.25-1.01c.12-.22.22-.43.31-.65.08-.22.13-.35.13-.4.02-.14.06-.31.1-.5.04-.19.09-.37.13-.52.05-.16.08-.25.11-.27.06-.06.13-.1.22-.12s.17,0,.26.04c.09.04.16.12.21.24.13.14.2.31.2.51s-.07.49-.2.87c-.11.24-.22.52-.32.85-.11.32-.2.62-.28.89s-.12.45-.13.55l-.36.11c.2-.19.4-.39.58-.6s.31-.38.4-.5c.2-.28.38-.51.53-.69s.34-.41.58-.68c.24-.28.48-.45.71-.51.23-.07.42-.1.55-.1.26.05.48.18.64.4.16.22.27.55.31.98,0,.17-.03.48-.09.94.4-.5.76-.91,1.1-1.21.23-.17.45-.27.67-.3.22-.03.41.04.58.23.31.17.52.42.61.77.1.34.12.78.07,1.3-.04.31-.04.54-.02.69.02.15.06.3.11.44.1.05.11.15.05.3-.06.15-.13.23-.22.23-.12,0-.25-.02-.41-.07-.15-.05-.28-.13-.4-.24-.11-.11-.17-.27-.17-.48v-1.12c0-.26,0-.48-.03-.65-.02-.17-.05-.27-.1-.31-.13-.07-.32,0-.58.23s-.52.53-.81.92c-.29.38-.56.78-.81,1.19-.23.37-.37.58-.42.64-.05.05-.15.04-.28-.05-.26-.08-.43-.2-.5-.35-.07-.15-.08-.32-.03-.51.06-.2.13-.48.22-.83.09-.35.18-.69.26-1.02.08-.33.14-.57.16-.71-.05-.1-.13-.13-.24-.1-.11.03-.23.09-.35.17-.14.1-.32.28-.52.54-.2.26-.41.57-.63.92-.14.23-.29.45-.45.67-.16.22-.3.42-.43.58-.13.17-.25.29-.34.38-.17.26-.28.41-.34.43-.06.02-.17,0-.34-.09Z"/>
    <path class="cls-1" d="m142.34,51.45c-.23-.2-.4-.41-.51-.63-.11-.22-.2-.56-.26-1.03-.02-.22,0-.5.07-.85.07-.35.17-.73.31-1.12s.28-.76.45-1.09.34-.58.5-.75c.14-.18.26-.28.35-.3s.25.03.5.14c.13.16.2.32.2.5s-.07.38-.22.61c-.24.32-.45.73-.62,1.21-.17.49-.29.92-.35,1.31-.12.41-.17.68-.16.83.01.14.12.24.32.29.23.05.5-.04.81-.26.31-.22.62-.53.92-.94.3-.4.54-.84.72-1.32.07-.17.13-.37.17-.59.04-.23.09-.4.13-.5.06-.24.14-.42.25-.53.11-.11.22-.18.34-.2.12-.02.22,0,.31.08.11.05.17.1.2.17.02.07.02.24,0,.51,0,.44-.1.82-.29,1.13-.19.31-.35.64-.49.99-.11.25-.27.53-.48.85-.21.31-.44.59-.68.85s-.48.43-.71.52c-.34.22-.63.32-.89.31-.26,0-.56-.07-.89-.19Z"/>
    <path class="cls-1" d="m153.66,51.54c-.24,0-.44-.05-.59-.15-.16-.1-.29-.27-.4-.51-.05-.17-.09-.36-.12-.57-.03-.21-.05-.41-.05-.59s.02-.31.05-.37c.05-.05.07-.14.06-.26s0-.26,0-.4c-.01-.24-.07-.38-.17-.41-.1-.03-.25,0-.44.12-.22.13-.5.31-.85.53s-.71.46-1.09.73c-.38.26-.74.54-1.07.83-.26.29-.42.51-.48.66-.05.15-.13.23-.23.23-.1.05-.18.05-.24,0-.07-.04-.16-.11-.28-.21-.08-.1-.17-.19-.25-.28-.08-.09-.14-.16-.16-.21,0-.06.02-.19.05-.38s.08-.38.13-.58c.05-.19.09-.32.12-.38.06,0,.11-.06.15-.18.04-.12.11-.25.21-.4.02-.14.09-.34.19-.58.1-.25.2-.46.28-.66.17-.29.29-.53.35-.72.07-.19.11-.43.13-.72-.01-.05,0-.09.04-.13s.08-.06.13-.06c.1-.1.21-.12.34-.08s.25.14.36.28c.22.29.3.59.26.89-.04.31-.24.74-.58,1.31-.08.19-.15.34-.19.44-.04.1-.06.18-.06.24.25-.17.46-.31.62-.42.16-.11.29-.2.39-.26.06-.06.2-.17.41-.32.22-.16.45-.31.69-.46.25-.15.43-.24.55-.26.1-.05.2-.09.31-.14.11-.04.19-.06.23-.06.1,0,.22.05.37.15.15.1.29.22.42.36.13.14.21.25.23.35,0,.05,0,.1,0,.14,0,.05.02.1.03.14.05.16.08.37.08.63,0,.26,0,.5-.03.72-.02.22-.07.34-.13.38.01.06.04.09.09.09v.09c-.06,0-.08.05-.07.15.01.1.05.21.12.33.07.12.13.22.21.29.14.14.2.28.18.41-.02.13-.13.21-.32.26Z"/>
    <path class="cls-1" d="m155.14,51.79c-.1-.1-.17-.22-.21-.36s-.06-.29-.04-.43.04-.26.09-.36c0-.1.01-.17.04-.23.03-.05.04-.1.03-.15-.01-.05,0-.13.04-.25s.07-.23.11-.34c.08-.19.17-.42.27-.69.1-.27.19-.54.27-.8s.16-.49.22-.68c.06-.19.1-.31.11-.36,0-.14.1-.22.29-.23.14-.05.25-.05.32,0,.07.04.17.16.29.35.1.1.13.24.11.43-.02.19-.1.43-.23.72-.05.1-.11.23-.17.41-.07.18-.11.34-.13.49-.05.1-.1.23-.17.41s-.12.34-.17.49c-.02.06-.05.15-.07.26-.02.11-.05.23-.09.36s-.08.24-.14.33c-.11.49-.21.78-.3.86-.09.08-.24.01-.44-.22Zm1.75-7.31c-.06-.06-.11-.15-.16-.26-.05-.11-.08-.22-.09-.32-.01-.1,0-.15.04-.15.1-.01.21-.11.34-.31.13-.19.19-.36.16-.5,0-.05.02-.09.05-.13s.08-.07.13-.08c.14-.1.29-.11.42-.04s.27.19.39.39c.11.23.14.42.09.57-.05.15-.18.36-.4.62-.18.24-.34.37-.5.4-.15.02-.31-.03-.48-.16Z"/>
    <path class="cls-1" d="m160.1,52.33c-.17-.05-.31-.1-.41-.17-.11-.07-.25-.18-.43-.33-.14-.19-.25-.37-.33-.54-.08-.17-.13-.36-.15-.58-.02-.22-.04-.51-.04-.85,0-.14.03-.36.08-.65.05-.29.12-.59.2-.91.08-.32.15-.6.22-.85.07-.25.11-.41.12-.49.04-.16-.02-.25-.18-.27-.16-.02-.33-.03-.51-.03-.19,0-.31,0-.37-.04-.05-.01-.07-.05-.07-.11,0-.05,0-.08,0-.1,0-.02-.03-.06-.06-.12-.02-.05,0-.12.04-.21s.15-.15.28-.17c.11-.02.25-.04.44-.06.19-.02.38-.06.57-.13.19-.07.35-.17.47-.31.11-.26.23-.56.38-.88.14-.32.29-.61.42-.87.14-.26.23-.42.28-.48.2-.11.35-.15.45-.13s.2.12.32.31c.06.08.1.15.13.2s.03.12,0,.22c-.02.1-.09.25-.19.45-.1.2-.25.5-.46.88-.06.12-.14.27-.23.45.05.01.12.02.22.02s.22,0,.36-.02c.13-.02.3-.05.5-.06.2-.02.37-.02.49,0,.28,0,.48.05.61.15.13.1.2.27.22.51.02.13,0,.21-.08.23-.08.02-.28.04-.6.04-.11,0-.28,0-.5.02-.23.01-.46.02-.71.04-.25.01-.46.03-.63.05-.17.02-.26.04-.26.06-.04.02-.09.14-.17.34s-.16.44-.23.69c-.08.26-.15.49-.21.69-.08.41-.15.82-.19,1.22-.04.41-.05.76-.03,1.06.02.3.09.51.2.63.11.11.32.13.63.06.31-.07.56-.18.76-.33.22-.18.39-.27.53-.27s.22.06.23.19c.02.13-.05.3-.21.53-.14.22-.32.41-.54.57-.22.16-.44.28-.67.34s-.45.07-.66,0Z"/>
    <path class="cls-1" d="m164.47,56.44c-.09-.07-.18-.16-.26-.26-.08-.1-.12-.19-.11-.26-.05-.17-.04-.38.03-.62.07-.25.21-.61.44-1.09.12-.19.23-.42.33-.68s.22-.53.35-.79c.06-.11.19-.34.4-.7.2-.36.42-.77.66-1.22.23-.46.43-.89.58-1.3-.31.32-.6.65-.86.98s-.51.6-.73.8c-.22.2-.43.3-.62.29-.16-.04-.32-.09-.5-.17s-.29-.22-.35-.42c-.05-.26-.06-.6-.04-1.01.02-.41.09-1.03.23-1.85.1-.41.15-.72.17-.94.02-.22,0-.39-.03-.5s-.1-.2-.2-.29c-.16-.14-.24-.27-.24-.39,0-.11.07-.21.24-.3.25-.06.43-.08.54-.06.11.02.24.12.4.3.1.16.18.3.26.44s.12.38.12.71c0,.14-.02.34-.06.58-.04.24-.08.47-.11.68-.03.21-.05.36-.06.44-.12.44-.19.83-.22,1.15-.03.32-.02.49.04.49.24-.19.47-.41.69-.66.22-.25.46-.53.7-.85.25-.32.52-.68.82-1.09.11-.2.22-.4.32-.59s.2-.39.27-.59c.07-.16.14-.28.22-.38.07-.1.13-.15.18-.16.06-.02.13-.02.22.02.09.04.17.08.25.12s.12.08.12.1c.01.01.04.02.09.04.05.01.1.02.15.03.05,0,.08.03.08.06,0,.02-.03.1-.08.23-.05.13-.11.28-.18.44-.07.16-.12.31-.17.43-.05.13-.07.2-.05.23.02.02,0,.11-.05.26-.06.15-.13.31-.21.5-.08.18-.15.34-.21.49-.12.4-.26.79-.41,1.18s-.34.78-.56,1.16c-.07.14-.18.37-.32.67-.14.3-.27.6-.4.89s-.23.52-.3.68c-.05.1-.12.25-.21.46-.09.21-.19.44-.29.69-.1.25-.2.49-.3.71-.1.22-.17.39-.22.51-.02.23-.08.4-.16.5-.05,0-.13,0-.25.02-.01.02-.06,0-.15-.07Z"/>
  </g>
</svg>