<?xml version="1.0" encoding="UTF-8"?>
<svg id="Layer_8" data-name="Layer 8" xmlns="http://www.w3.org/2000/svg" viewBox="0 0 241.11 107.29">
  <defs>
    <style>
      .cls-1 {
        fill: #e9e9e9;
      }
    </style>
  </defs>
  <path class="cls-1" d="m153.75,32.71c-.33-.19-.64-.4-.94-.63-.05-.04.05.04-.03-.03-.04-.03-.08-.07-.12-.1-.07-.06-.13-.11-.2-.17-.14-.13-.29-.26-.42-.4s-.26-.26-.38-.4c-.06-.07-.13-.15-.19-.22-.03-.03-.06-.07-.08-.1-.02-.03-.07-.09-.03-.03-.23-.31-.45-.63-.64-.96-.15-.26-.52-.37-.77-.2s-.36.5-.2.77c.82,1.42,2.01,2.62,3.44,3.44.26.15.63.07.77-.2s.07-.61-.2-.77h0Z"/>
  <path class="cls-1" d="m153.33,33.03c-1.45.75-2.4,2.28-2.49,3.9-.02.29.27.58.56.56.32-.01.54-.25.56-.56,0-.08.01-.17.02-.25-.01.12,0,0,0-.03,0-.04.01-.08.02-.12.03-.17.08-.33.13-.49.03-.08.06-.16.09-.24-.03.08,0,0,.01-.03s.04-.08.05-.11c.07-.15.16-.3.25-.44.05-.07.09-.14.14-.21.03-.04.04-.05,0,0,.03-.04.06-.08.1-.12.1-.12.22-.24.33-.35.06-.06.13-.11.19-.17.03-.03.09-.07.03-.02.03-.03.07-.05.1-.07.15-.1.3-.19.46-.27.26-.14.36-.52.2-.77-.17-.27-.49-.35-.77-.2h0Z"/>
  <path class="cls-1" d="m152.64,32.85c-8.6-.03-17.37,1.41-25.04,5.47-6.74,3.56-12.44,9.29-15.38,16.38-1.36,3.26-2.51,7.34-1.81,10.89.75,3.81,4.46,5.08,7.94,4.35,3.67-.77,6.99-3.42,7.97-7.12s-.5-7.02-3.44-9.15c-3.48-2.52-8.12-3.23-12.27-3.81-5.4-.75-10.86-.87-16.28-.38-.72.07-.72,1.19,0,1.12,4.3-.39,8.62-.41,12.92-.01,3.84.35,7.85.88,11.49,2.21,3.01,1.09,6.01,3.1,6.64,6.46.72,3.87-1.82,7.43-5.26,8.94s-7.91,1.2-8.65-3.04c-.59-3.34.58-7.23,1.89-10.28,2.74-6.39,7.82-11.63,13.82-15.03,7.71-4.37,16.69-5.89,25.47-5.86.72,0,.72-1.12,0-1.12h0Z"/>
  <g>
    <path class="cls-1" d="m13.16,42.27c-.39.01-.68,0-.87-.06-.19-.06-.26-.2-.2-.42.04-.17.13-.29.27-.38.14-.08.34-.15.61-.19.15-.03.35-.06.6-.1s.48-.08.7-.13c.46-.06.84-.1,1.14-.15.3-.04.61-.08.93-.1.32-.03.73-.06,1.22-.08.41-.03.9-.06,1.47-.1.04,0,.19.01.44.04.25.03.52.06.82.1.29.04.51.09.65.15.32.07.56.17.7.29.15.13.25.31.3.55.04.17.04.27,0,.3-.04.04-.12.08-.23.14-.32.1-.56.15-.71.15s-.33-.04-.52-.1c-.07-.07-.15-.13-.24-.19-.09-.06-.25-.1-.46-.14-.22-.03-.56-.07-1.02-.09-.39.04-.73.06-1.03.06s-.44.04-.44.1l-1.24.06-1.03.11c-.14.01-.34.03-.59.05s-.5.04-.73.06c-.24.02-.42.05-.55.07Zm-.17,12.52c-.11,0-.24-.09-.38-.27-.14-.18-.2-.36-.19-.52.01-.22.08-.55.19-.97.11-.42.24-.85.38-1.28.14-.43.27-.78.38-1.03.06-.22.11-.42.16-.6.05-.17.08-.29.09-.35.04-.06.11-.2.2-.44.09-.24.16-.47.22-.69.03-.11.09-.33.18-.64.09-.31.2-.68.34-1.1.13-.42.27-.83.4-1.24.13-.41.25-.76.35-1.07.1-.31.16-.51.19-.61.11-.17.2-.33.25-.48.06-.15.09-.26.1-.31.08-.06.13-.13.15-.22.01-.09.02-.16.02-.22,0-.07.02-.13.07-.17.05-.04.07-.09.07-.15.06-.04.09-.11.1-.2.01-.09.06-.17.13-.24l.1-.36,1.24-.02c-.03.17-.07.38-.13.62-.06.25-.19.57-.4.98-.07.28-.15.53-.24.76-.09.22-.13.37-.12.44-.03.03-.09.17-.18.42-.09.25-.2.56-.31.92-.12.36-.24.73-.36,1.09-.12.36-.22.68-.31.96-.09.27-.15.44-.18.51-.11.22-.24.55-.38.99-.14.43-.35,1.02-.63,1.76-.11.22-.25.56-.41,1.01-.16.45-.29.85-.39,1.22-.15.55-.26.93-.33,1.14-.06.22-.12.34-.16.36s-.12.02-.23.01Z"/>
    <path class="cls-1" d="m18.39,53.13c-.13-.1-.21-.2-.26-.29s-.05-.29-.01-.57c.04-.39.1-.74.17-1.04.07-.3.15-.65.25-1.04.03-.17.11-.46.24-.86.13-.41.3-.85.49-1.32.2-.48.39-.93.59-1.35.2-.43.36-.75.5-.96.11-.08.25-.12.41-.1.16.01.3.08.41.19.15.13.18.35.07.66s-.32.81-.64,1.48c-.17.38-.29.66-.38.85-.08.19-.12.3-.1.34.01.04.08.02.19-.05.08-.15.24-.33.46-.54.22-.2.46-.4.71-.6.25-.2.49-.37.71-.52.22-.15.38-.25.46-.29.11-.07.24-.13.39-.18.15-.05.25-.09.3-.12.32-.15.65-.21.99-.17s.55.17.63.38c.01.11.1.22.25.34.06,0,.09.04.1.13,0,.1-.07.16-.22.18s-.33.04-.56.05c-.18.01-.34.05-.48.1-.14.06-.31.13-.5.21-.53.31-1.04.61-1.52.9s-.95.69-1.4,1.18c-.1.11-.2.25-.29.4-.1.15-.2.32-.31.5-.07.07-.14.22-.21.46-.07.24-.13.47-.18.68-.05.22-.07.35-.07.39-.08.27-.17.46-.27.59-.17.22-.31.34-.42.34s-.28-.11-.5-.34Z"/>
    <path class="cls-1" d="m24.69,58.92c-.31.06-.52.06-.63.02-.11-.04-.27-.11-.46-.21-.15-.11-.27-.2-.36-.25-.08-.06-.13-.11-.13-.17,0-.04.01-.09.04-.14.03-.05.08-.09.16-.13.08-.04.19-.05.33-.05.1.06.26.08.49.08s.37-.03.43-.08c.27-.15.51-.25.73-.29.43-.21.82-.48,1.15-.8.34-.32.66-.74.97-1.26.13-.2.26-.42.4-.68.14-.26.24-.51.29-.77.11-.28.24-.66.39-1.13s.28-.95.39-1.42c.11-.47.17-.82.19-1.06.08-.78.22-1.51.41-2.17.19-.66.35-1.41.49-2.24.08-.2.15-.31.19-.35.04-.03.13-.05.27-.05.15,0,.27.01.35.03.08.02.16.11.26.26.14.27.19.58.16.93-.04.36-.14.67-.33.93-.14.2-.26.5-.37.91s-.21.93-.3,1.54c-.07.31-.14.67-.22,1.08-.08.41-.16.87-.24,1.38-.06.14-.13.35-.23.64-.1.29-.16.51-.19.68-.01.06-.06.17-.13.34-.07.17-.14.33-.21.49-.07.16-.12.27-.15.33-.55,1.13-1.17,2-1.87,2.6-.7.6-1.46.93-2.29.99Zm1.6-6.09c-.15,0-.31-.08-.47-.25-.16-.17-.27-.3-.33-.4-.06-.14-.13-.27-.21-.4s-.14-.28-.18-.46c-.04-.18-.02-.41.03-.67.06-.18.14-.44.24-.79.1-.34.22-.72.36-1.12.13-.41.27-.81.42-1.21s.28-.76.41-1.07.24-.54.34-.68c.08-.11.18-.18.28-.21.1-.03.21-.02.33.03.11.05.21.14.29.28.15.2.22.36.19.5-.03.14-.15.41-.38.82-.06.15-.13.32-.21.49-.08.18-.13.29-.13.35-.01.03-.04.12-.07.28-.04.16-.07.31-.12.45-.04.14-.08.21-.13.21-.06.06-.12.21-.19.47-.07.26-.13.55-.19.86s-.09.59-.1.82c-.01.23,0,.35.06.35.43,0,.89-.17,1.35-.5s.94-.83,1.42-1.47l.36,1.49c-.2.1-.38.2-.55.3-.17.1-.32.23-.46.37-.04.06-.14.13-.29.23-.15.1-.3.19-.45.26-.15.08-.24.12-.28.12-.07.01-.1.05-.1.1,0,.03-.09.08-.27.16-.18.08-.37.14-.57.2-.2.06-.33.08-.4.08Z"/>
    <path class="cls-1" d="m37.41,55.96c-.1-.03-.2-.08-.31-.16-.11-.08-.17-.14-.17-.2.01-.1.03-.19.06-.26.03-.08.05-.15.06-.22.03-.14.04-.3.04-.49s.02-.54.06-1.06c.04-.56.08-1.03.12-1.41.03-.38.07-.72.12-1.02.04-.3.09-.6.16-.91s.14-.67.24-1.09c.07-.48.07-.77.01-.88-.06-.11-.17-.17-.33-.19-.27-.03-.5-.07-.7-.14-.2-.06-.33-.18-.39-.35-.14-.14-.18-.25-.1-.34.07-.08.21-.15.43-.2.22-.05.45-.07.7-.05.24-.01.42-.03.56-.05.13-.02.24-.09.33-.21.08-.12.17-.33.25-.62.03-.13.08-.3.16-.52.08-.22.18-.52.3-.88.13-.1.19-.22.19-.38.01-.2.11-.46.28-.79.17-.33.46-.79.85-1.4.48-.62.91-1.1,1.29-1.45.39-.35.84-.57,1.35-.65.06-.03.18-.04.38-.04h.4c.29.01.5.07.61.17.11.1.23.27.36.5.11.18.13.43.05.75-.08.31-.17.56-.28.72-.07.11-.17.24-.3.38s-.26.26-.38.37c-.12.1-.21.16-.26.16-.07,0-.14-.02-.2-.07-.06-.05-.12-.08-.18-.09-.13-.06-.15-.16-.06-.3s.18-.29.27-.43c.14-.21.23-.38.27-.5s.06-.24.04-.34c-.01-.1-.04-.22-.08-.36l.19.19c-.1-.06-.21-.08-.34-.06-.13.01-.27.05-.42.1-.27.14-.48.29-.65.45-.17.16-.31.3-.42.41-.34.29-.61.65-.82,1.07s-.41.81-.59,1.18c-.06.11-.15.32-.28.62-.13.3-.26.58-.37.85-.1.25-.2.47-.29.66-.1.19-.15.3-.15.35-.04.1-.02.15.07.15s.28,0,.56-.02c.69-.08,1.2-.11,1.54-.07.34.04.54.16.6.39.24.34.21.54-.09.62-.3.08-.85.17-1.65.28-.22.01-.45.02-.67.03-.22,0-.37.02-.44.03-.06.01-.11.04-.17.06-.06.03-.12.17-.19.42-.01.15-.04.34-.07.56-.04.22-.06.42-.07.62-.06.17-.09.34-.12.53s-.07.34-.14.48c-.08.77-.14,1.48-.17,2.13-.03.65-.07,1.21-.12,1.67-.05.46-.16.82-.35,1.07-.1.11-.2.2-.3.26s-.2.06-.28-.01Z"/>
    <path class="cls-1" d="m42.2,53.13c-.13-.1-.21-.2-.26-.29s-.05-.29-.01-.57c.04-.39.1-.74.17-1.04.07-.3.15-.65.25-1.04.03-.17.11-.46.24-.86.13-.41.3-.85.49-1.32.2-.48.39-.93.59-1.35.2-.43.36-.75.5-.96.11-.08.25-.12.41-.1.16.01.3.08.41.19.15.13.18.35.07.66s-.32.81-.64,1.48c-.17.38-.29.66-.38.85-.08.19-.12.3-.1.34.01.04.08.02.19-.05.08-.15.24-.33.46-.54.22-.2.46-.4.71-.6.25-.2.49-.37.71-.52.22-.15.38-.25.46-.29.11-.07.24-.13.39-.18.15-.05.25-.09.3-.12.32-.15.65-.21.99-.17s.55.17.63.38c.01.11.1.22.25.34.06,0,.09.04.1.13,0,.1-.07.16-.22.18s-.33.04-.56.05c-.18.01-.34.05-.48.1-.14.06-.31.13-.5.21-.53.31-1.04.61-1.52.9s-.95.69-1.4,1.18c-.1.11-.2.25-.29.4-.1.15-.2.32-.31.5-.07.07-.14.22-.21.46-.07.24-.13.47-.18.68-.05.22-.07.35-.07.39-.08.27-.17.46-.27.59-.17.22-.31.34-.42.34s-.28-.11-.5-.34Z"/>
    <path class="cls-1" d="m52.53,53.13c-.29.25-.63.4-1.02.44s-.76-.02-1.12-.18c-.36-.16-.67-.41-.9-.75-.24-.31-.39-.66-.46-1.06-.07-.4-.08-.92-.02-1.56.04-.55.22-1.1.52-1.65.31-.55.68-1.05,1.12-1.48.44-.43.88-.73,1.31-.9.21-.14.39-.21.54-.2.15,0,.37.02.68.05.32.04.56.1.72.19s.29.2.39.34c.21.21.35.42.42.62.07.2.1.4.1.6-.06.31-.26.68-.62,1.12-.36.44-.82.8-1.4,1.08-.31.1-.64.14-1.01.13-.36-.01-.67-.1-.9-.27-.27-.11-.44-.09-.53.05s-.16.5-.23,1.06c-.06.53-.01.92.13,1.17s.33.39.57.43c.28.06.5.09.66.12s.36-.04.6-.18c.22-.14.36-.22.42-.24.06-.02.1-.05.14-.08s.12-.12.26-.26c.1-.1.18-.17.23-.22.06-.05.12-.07.19-.07s.13.03.19.09c.06.06.11.11.17.14.14,0,.17.08.09.25-.08.17-.23.37-.45.6-.22.23-.49.44-.8.64Zm-.02-4.45c.15-.07.31-.17.48-.3.17-.13.31-.28.43-.44.12-.16.18-.3.18-.41,0-.2-.09-.36-.27-.49-.18-.13-.46-.15-.82-.05-.15.04-.33.14-.52.3-.2.16-.38.34-.56.54-.18.2-.31.37-.42.52-.1.15-.14.25-.12.27.04.07.16.12.36.16.2.03.42.05.66.03.25-.01.44-.06.6-.13Z"/>
    <path class="cls-1" d="m57.15,53.92c-.62,0-1.12-.23-1.51-.7-.39-.47-.58-1.05-.57-1.75.03-.5.13-1.05.3-1.63.18-.58.41-1.14.7-1.68.29-.54.62-1.01.97-1.42.35-.41.71-.69,1.09-.86.14-.07.29-.13.45-.17.16-.04.33-.06.49-.06.15,0,.31.02.48.07.17.05.31.1.42.16.24.1.42.22.55.36.13.14.24.36.34.65.04.27.06.46.06.57s-.04.28-.1.5c-.17.5-.39.94-.65,1.3-.27.36-.62.67-1.07.92-.11.07-.24.12-.39.16-.15.04-.3.05-.45.05-.28,0-.55-.05-.81-.16-.26-.1-.47-.26-.62-.47l-.15-.17-.06.17c-.14.38-.25.73-.33,1.05-.08.32-.12.62-.12.88,0,.17.02.33.05.48.03.15.09.29.16.4.06.08.15.14.28.18.13.04.28.05.43.05.1,0,.2,0,.3-.01.1,0,.21-.03.3-.07.24-.08.43-.18.58-.27.15-.1.3-.2.45-.31l.08-.04h-.02c.17-.08.38-.21.65-.38.06,0,.11-.03.17-.1.11-.06.25-.03.43.06.17.1.26.22.26.38-.01.07-.08.18-.19.33-.11.15-.23.28-.37.41-.13.13-.24.2-.33.21-.01.01-.06.04-.15.07-.08.04-.14.07-.17.09h.02c-.13.17-.25.25-.38.25h-.17c-.06.1-.24.21-.55.33-.31.12-.61.18-.9.18Zm.94-4.62c.25,0,.47-.07.66-.22s.35-.31.49-.49c.28-.38.44-.75.49-1.1.05-.36,0-.61-.14-.75-.08-.04-.16-.07-.22-.07-.06,0-.19.02-.37.07-.13.03-.3.13-.52.31-.22.18-.44.39-.66.61s-.38.41-.49.57l-.27.44c.11-.04.22-.07.33-.07.1,0,.16,0,.18.03,0,.13.02.24.07.35.05.1.11.19.19.24.08.06.16.08.26.08Z"/>
    <path class="cls-1" d="m72.5,53.61c-.14,0-.28-.08-.43-.23-.15-.15-.27-.35-.38-.58-.1-.23-.16-.45-.16-.66s.05-.6.16-1.18c.11-.57.23-1.16.39-1.74.11-.36.15-.57.1-.63-.04-.06-.23.02-.57.23-.2.1-.37.2-.52.3-.15.1-.29.22-.4.35-.07.06-.18.15-.32.27-.14.13-.29.25-.44.36-.18.14-.41.34-.69.59-.28.25-.56.5-.83.76s-.48.45-.62.59c-.03.06-.07.1-.13.15-.06.04-.12.07-.19.07-.07,0-.15,0-.23-.03-.15-.04-.3-.13-.43-.27-.13-.14-.2-.3-.2-.48,0-.14.06-.38.17-.72.11-.34.26-.76.45-1.25.19-.49.41-1.01.66-1.55.04-.07.08-.16.1-.26.03-.1.05-.22.07-.35.02-.13.03-.25.03-.36,0-.07.01-.14.03-.22.02-.08.05-.15.08-.23.03-.08.07-.13.09-.16.06-.11.15-.14.29-.09.14.05.26.15.36.3.21.2.32.44.33.74,0,.29-.07.66-.22,1.09-.06.1-.1.19-.14.28-.03.09-.07.17-.09.23-.03.06-.06.13-.08.2.06,0,.18-.06.38-.19.2-.13.43-.27.69-.42.21-.15.4-.3.56-.43.16-.13.3-.24.41-.31.11-.08.18-.12.21-.12.06,0,.13-.02.21-.06s.15-.09.21-.15c.06-.06.12-.09.19-.1.11-.01.2-.05.25-.11.11-.08.26-.11.44-.07.18.04.35.11.5.22.15.11.23.24.23.38,0,.06.04.12.11.19.11,0,.19.18.22.52.03.35,0,.69-.12,1.01,0,.21-.04.46-.12.76-.08.29-.14.57-.2.84-.11.35-.19.66-.23.92-.04.27-.05.49-.02.67s.08.33.15.44c.06.1.06.21,0,.33-.06.12-.17.18-.34.18Z"/>
    <path class="cls-1" d="m77.04,53.73c-.18.01-.33,0-.44-.05-.11-.05-.25-.12-.42-.22-.31-.24-.54-.48-.68-.72-.15-.24-.21-.49-.2-.72.03-.13.02-.29-.02-.48-.08-.07-.11-.12-.08-.14.03-.02.05-.06.06-.12.11-.03.13-.1.04-.23-.04-.11-.02-.37.07-.77.09-.4.21-.77.37-1.12.07-.15.17-.36.3-.61.13-.25.28-.51.45-.77.17-.26.32-.47.46-.62.31-.35.58-.61.83-.79.25-.18.52-.32.83-.43.28-.11.48-.17.61-.19.13-.01.3.07.53.25.34.1.59.23.77.41.18.18.31.44.41.81.11.41.15.89.12,1.44-.04.55-.28,1.26-.72,2.13-.27.55-.53.96-.79,1.24-.26.28-.57.57-.93.88-.27.22-.51.4-.73.52-.22.13-.5.22-.82.29Zm1.68-2.5c.28-.42.5-.81.66-1.17.16-.36.29-.81.39-1.35.03-.15.03-.35.02-.58-.01-.23-.05-.44-.09-.64-.05-.2-.12-.3-.2-.32-.18-.07-.39-.07-.61-.01s-.47.23-.73.51c-.24.28-.45.6-.64.94-.19.35-.36.73-.51,1.15-.15.42-.3.87-.44,1.34-.14.53-.13.94.03,1.22.16.28.43.35.81.2s.82-.58,1.32-1.31Z"/>
    <path class="cls-1" d="m87.9,53.25c-.11.01-.26-.05-.44-.19-.18-.14-.36-.3-.52-.48-.13-.2-.23-.52-.3-.97-.08-.45-.13-.91-.16-1.39-.41.62-.77,1.12-1.09,1.51-.32.39-.61.7-.87.91-.26.22-.5.36-.72.43-.13.04-.23.04-.32-.01-.08-.05-.15-.12-.21-.22s-.12-.26-.18-.47c-.06-.22-.09-.44-.07-.68-.03-.29-.05-.63-.07-1.01s-.04-.75-.04-1.12c0-.37,0-.7.01-1,.01-.29.04-.49.08-.59-.01-.06-.02-.14-.02-.25-.04-.07-.06-.23-.05-.47,0-.24.03-.49.07-.72.04-.24.08-.38.1-.44.03-.06.07-.1.12-.13.05-.03.11-.05.18-.06.21.04.32.13.34.25.04.03.08.07.13.12.04.05.09.07.15.05.04.03.07.15.09.38.02.22.03.48.03.78-.01.14-.01.27,0,.4.01.13,0,.24-.02.34,0,.07,0,.22.02.45.01.23.03.47.04.7,0,.18,0,.42-.02.72-.01.3-.02.55-.02.75.04.28.08.46.12.54.03.08.09.09.18.03.08-.03.23-.21.45-.55.22-.34.47-.76.77-1.26.22-.34.42-.63.58-.87.16-.25.3-.44.41-.58.04-.34.09-.64.14-.9.05-.27.08-.45.09-.57.2-.2.37-.31.52-.35.15-.04.28.05.38.24.14.06.23.14.26.26.03.12.04.26.01.41-.06.2-.11.39-.16.57-.05.18-.1.37-.16.57-.06.2-.09.51-.12.94-.02.43-.02.86-.01,1.29.01.43.05.75.1.96.01.13.09.19.22.18.13,0,.3-.1.51-.28.21-.22.44-.51.7-.85.26-.34.48-.66.67-.96.19-.29.28-.48.28-.55,0-.11.03-.23.08-.37.06-.13.13-.23.21-.3.07-.08.11-.17.13-.26.01-.09.04-.19.08-.28.01-.03.03-.07.06-.13.03-.06.05-.11.06-.17-.04-.1-.01-.19.09-.26.1-.08.17-.16.2-.24.03-.18.11-.29.24-.33.13-.03.27,0,.4.08.13.09.21.23.22.41,0,.17-.05.41-.16.74-.1.32-.25.67-.42,1.03-.18.36-.37.69-.58.99-.06.11-.11.22-.16.34-.05.11-.13.26-.24.44-.11.18-.31.45-.59.8-.08.11-.18.23-.28.35-.1.12-.21.23-.33.33-.24.31-.45.55-.64.71s-.38.26-.58.27Z"/>
  </g>
</svg>